<svg width="1008" height="220" viewBox="0 0 1008 220" fill="none" xmlns="http://www.w3.org/2000/svg">
<path fill-rule="evenodd" clip-rule="evenodd" d="M151.039 219.438C164.437 219.438 176.853 215.236 187.042 208.078C193.781 215.076 203.248 219.431 213.731 219.431C234.192 219.431 250.779 202.844 250.779 182.383C250.779 161.923 234.192 145.336 213.731 145.336C213.387 145.336 213.044 145.341 212.703 145.35C207.345 116.163 181.775 94.0469 151.039 94.0469C128.814 94.0469 109.29 105.611 98.1562 123.051C95.8823 122.724 93.5573 122.555 91.1928 122.555C68.4949 122.555 49.4428 138.164 44.1852 159.234C40.2672 157.633 35.9219 156.742 31.3479 156.742C14.0349 156.742 0 169.501 0 185.24C0 200.979 14.0349 213.738 31.3479 213.738C40.9751 213.738 49.5887 209.793 55.3391 203.584C64.201 213.33 76.9824 219.448 91.1928 219.448C101.551 219.448 111.15 216.197 119.026 210.66C128.396 216.236 139.344 219.438 151.039 219.438Z" fill="white"/>
<path fill-rule="evenodd" clip-rule="evenodd" d="M820.908 116.707C830.88 122.225 842.513 125.391 854.936 125.391C867.038 125.391 878.39 122.386 888.187 117.13C896.569 124.068 907.326 128.237 919.057 128.237C932.536 128.237 944.73 122.732 953.512 113.848C959.212 119.209 967.205 122.543 976.054 122.543C993.367 122.543 1007.4 109.784 1007.4 94.0449C1007.4 78.3059 993.367 65.5469 976.054 65.5469C972.472 65.5469 969.031 66.0931 965.824 67.0988C960.247 46.4983 941.422 31.3438 919.057 31.3438C917.062 31.3438 915.094 31.4644 913.162 31.6988C901.637 12.7656 879.879 0 854.936 0C835.592 0 818.164 7.67762 805.938 19.9554C799.519 14.6168 791.267 11.4062 782.265 11.4062C765.743 11.4062 751.746 22.2222 746.97 37.16C745.922 37.0902 744.865 37.0547 743.799 37.0547C717.829 37.0547 696.777 58.1071 696.777 84.0765C696.777 110.046 717.829 131.098 743.799 131.098C753.974 131.098 763.394 127.866 771.089 122.373C776.791 127.752 784.798 131.098 793.664 131.098C805.331 131.098 815.51 125.303 820.908 116.707Z" fill="white"/>
</svg>
