<svg width="1118" height="345" viewBox="0 0 1118 345" fill="none" xmlns="http://www.w3.org/2000/svg">
<path fill-rule="evenodd" clip-rule="evenodd" d="M151.039 344.391C164.437 344.391 176.853 340.189 187.042 333.031C193.781 340.03 203.248 344.384 213.731 344.384C234.192 344.384 250.779 327.797 250.779 307.337C250.779 286.876 234.192 270.289 213.731 270.289C213.387 270.289 213.044 270.294 212.703 270.303C207.345 241.116 181.775 219 151.039 219C128.814 219 109.29 230.565 98.1562 248.005C95.8823 247.677 93.5573 247.508 91.1928 247.508C68.4949 247.508 49.4428 263.117 44.1852 284.187C40.2672 282.586 35.9219 281.695 31.3479 281.695C14.0349 281.695 0 294.454 0 310.193C0 325.932 14.0349 338.691 31.3479 338.691C40.9751 338.691 49.5887 334.746 55.3391 328.537C64.201 338.283 76.9824 344.401 91.1928 344.401C101.551 344.401 111.15 341.15 119.026 335.613C128.396 341.189 139.344 344.391 151.039 344.391Z" fill="white"/>
<path fill-rule="evenodd" clip-rule="evenodd" d="M930.908 116.707C940.88 122.225 952.513 125.391 964.936 125.391C977.038 125.391 988.39 122.386 998.187 117.13C1006.57 124.068 1017.33 128.237 1029.06 128.237C1042.54 128.237 1054.73 122.732 1063.51 113.848C1069.21 119.209 1077.21 122.543 1086.05 122.543C1103.37 122.543 1117.4 109.784 1117.4 94.0449C1117.4 78.3059 1103.37 65.5469 1086.05 65.5469C1082.47 65.5469 1079.03 66.0931 1075.82 67.0988C1070.25 46.4983 1051.42 31.3438 1029.06 31.3438C1027.06 31.3438 1025.09 31.4644 1023.16 31.6988C1011.64 12.7656 989.879 0 964.936 0C945.592 0 928.164 7.67762 915.938 19.9554C909.519 14.6168 901.267 11.4062 892.265 11.4062C875.743 11.4062 861.746 22.2222 856.97 37.16C855.922 37.0902 854.865 37.0547 853.799 37.0547C827.829 37.0547 806.777 58.1071 806.777 84.0765C806.777 110.046 827.829 131.098 853.799 131.098C863.974 131.098 873.394 127.866 881.089 122.373C886.791 127.752 894.798 131.098 903.664 131.098C915.331 131.098 925.51 125.303 930.908 116.707Z" fill="white"/>
</svg>
