<svg width="2198" height="909" viewBox="0 0 2198 909" fill="none" xmlns="http://www.w3.org/2000/svg">
<path fill-rule="evenodd" clip-rule="evenodd" d="M2197.74 905.088C2197.36 906.911 2195.75 908.282 2193.82 908.282H4.7422C2.55392 908.282 0.776007 906.525 0.742623 904.344C0.74237 904.326 0.742242 904.307 0.742242 904.289V179.665C0.742242 176.486 4.26079 174.557 6.93193 176.281C21.6854 185.803 61.8462 211.471 116.949 244.707L156.174 163.415H122.508L173.008 51.3349H156.174L187.436 0.168003L221.103 51.3349H206.674L247.555 163.415H213.888L249.632 241.02L293.847 142.888H277.014L308.276 91.7209L341.943 142.888H327.514L368.395 254.968H334.728L385.228 364.611H328.034C372.41 388.098 418.168 411.078 463.138 431.771L470.493 379.969H418.19L457.868 297.993H432.618L470.493 214.195H457.868L481.315 175.939L506.565 214.195H495.743L526.404 297.993H501.154L539.029 379.969H495.743L512.152 453.511C601.114 491.389 683.624 517.304 741.854 516.639L748.782 467.843H696.479L736.157 385.866H710.907L748.782 302.068H736.157L759.604 263.813L784.854 302.068H774.032L804.693 385.866H779.443L817.318 467.843H774.032L784.279 513.767C867.17 505.016 923.918 480.481 978.908 455.595L986.639 420.174H956.47L982.868 361.766H965.269L986.639 302.06H979.097L996.695 274.803L1013.04 302.06H1004.24L1030.64 361.766H1013.04L1040.69 420.174H1004.24L1007.37 442.747C1047.4 424.92 1088.71 408.314 1140.67 398.84L1145.63 364.258H1113.93L1137.97 315.072H1122.67L1145.63 264.794H1137.97L1152.18 241.84L1167.49 264.794H1160.93L1179.51 315.072H1164.21L1187.16 364.258H1160.93L1167.79 394.698C1176.96 393.562 1186.45 392.646 1196.32 391.975C1265.08 387.302 1329.22 399.183 1390.78 415.9L1396.77 389.438H1366.6L1392.99 333.079H1375.4L1396.77 275.468H1389.22L1406.82 249.167L1423.16 275.468H1414.36L1440.76 333.079H1423.16L1450.82 389.438H1414.36L1419.34 424.013C1437.66 429.418 1455.77 435.096 1473.73 440.727C1544.95 463.054 1613.82 484.642 1683.8 485.52L1691.83 449.542H1648.55L1686.42 367.565H1661.17L1691.83 283.767H1681.01L1706.26 245.512L1729.71 283.767H1717.08L1754.96 367.565H1729.71L1769.38 449.542H1717.08L1721.92 483.621C1764.53 478.61 1816.18 463.864 1869.53 444.649L1878.37 404.884H1820.66L1871.16 295.241H1837.49L1878.37 183.161H1863.94L1897.61 131.994L1928.87 183.161H1912.04L1945.82 258.128L1981.01 181.716H1947.34L1988.22 69.6359H1973.8L2007.46 18.469L2038.72 69.6359H2021.89L2072.39 181.716H2038.72L2091.63 291.359H2021.89L2033.85 375.843C2111.04 339.85 2173.39 306.42 2192.08 296.251C2194.76 294.794 2197.82 296.85 2197.82 299.898V904.282M2197.82 904.292C2197.82 904.564 2197.79 904.831 2197.74 905.088ZM1928.87 295.241H1962.54L1960.79 291.359H1988.22L1968.91 378.211L1928.87 295.241ZM1912.04 404.884H1962.97L1962.31 407.876C1946.77 414.526 1931.01 421.052 1915.21 427.322L1912.04 404.884ZM277.014 254.968H256.056L264.388 273.058H206.674L212.916 301.121C223.641 307.258 234.604 313.473 245.764 319.732L277.014 254.968ZM164.548 273.058C167.131 274.577 169.735 276.105 172.359 277.642L173.008 273.058H164.548Z" fill="#219653"/>
</svg>
