<svg width="1878" height="777" viewBox="0 0 1878 777" fill="none" xmlns="http://www.w3.org/2000/svg">
<path fill-rule="evenodd" clip-rule="evenodd" d="M0 154.503V772.23C0 774.44 1.79084 776.23 3.99998 776.23H1874C1876.21 776.23 1878 774.44 1878 772.231L1878 257.187C1878 257.176 1878 257.165 1878 257.154C1877.98 254.124 1874.87 252.118 1872.2 253.568C1855.22 262.795 1802.64 290.9 1737.84 321.117L1727.62 248.902H1787.23L1742.01 155.182H1770.79L1727.62 59.3792H1742.01L1715.29 15.6432L1686.51 59.3792H1698.84L1663.9 155.182H1692.68L1662.59 220.496L1633.72 156.417H1648.11L1621.39 112.681L1592.61 156.417H1604.94L1570 252.22H1598.78L1555.61 345.94H1604.94L1597.38 379.93C1551.78 396.354 1507.64 408.958 1471.22 413.242L1467.08 384.112H1511.79L1477.87 314.041H1499.45L1467.08 242.413H1477.87L1457.83 209.713L1436.25 242.413H1445.5L1419.29 314.041H1440.87L1408.5 384.112H1445.5L1438.63 414.865C1378.81 414.115 1319.95 395.662 1259.07 376.578L1259.07 376.577C1243.72 371.764 1228.24 366.911 1212.58 362.291L1208.32 332.737H1239.48L1215.85 284.563H1230.89L1208.32 235.318H1215.85L1201.88 212.837L1186.84 235.318H1193.28L1175.02 284.563H1190.06L1167.49 332.737H1193.28L1188.17 355.356C1135.55 341.067 1080.72 330.911 1021.95 334.906C1013.51 335.479 1005.39 336.262 997.56 337.233L991.696 311.214H1014.12L994.499 269.171H1007.58L991.696 226.194H997.302L984.221 206.575L972.075 226.194H978.615L958.994 269.171H972.075L951.52 311.214H978.615L974.375 340.773C929.967 348.871 894.65 363.066 860.438 378.305L857.758 359.009H888.918L865.279 309.084H880.322L857.758 258.049H865.279L851.311 234.75L836.269 258.049H842.715L824.449 309.084H839.492L816.928 359.009H842.715L836.107 389.287C789.104 410.559 740.598 431.53 669.747 439.01L660.988 399.755H697.987L665.613 329.684H687.196L660.988 258.056H670.238L648.655 225.356L628.613 258.056H639.405L607.03 329.684H628.613L594.697 399.755H639.405L633.482 441.465C583.709 442.033 513.181 419.882 437.139 387.504L423.113 324.643H460.112L427.738 254.572H449.321L423.113 182.944H432.363L410.78 150.244L390.738 182.944H401.53L369.155 254.572H390.738L356.822 324.643H401.53L395.242 368.922C356.804 351.234 317.691 331.592 279.759 311.516H328.648L285.482 217.796H314.259L279.315 121.993H291.649L262.871 78.2568L236.149 121.993H250.538L212.744 205.874L182.191 139.539H210.968L176.024 43.736H188.357L159.58 0L132.858 43.736H147.247L104.081 139.539H132.858L99.33 209.025C53.1479 181.169 19.2448 159.533 6.05299 151.028C3.38103 149.306 0 151.324 0 154.503ZM1676.89 252.22L1675.39 248.902H1698.84L1682.33 323.139L1648.11 252.22H1676.89ZM1633.72 345.94H1677.26L1676.69 348.498C1663.41 354.182 1649.94 359.76 1636.44 365.119L1633.72 345.94ZM218.235 217.796L225.357 233.259H176.024L181.36 257.246C190.527 262.491 199.898 267.804 209.438 273.154L236.149 217.796H218.235ZM146.692 237.176L147.247 233.259H140.016C142.224 234.557 144.45 235.863 146.692 237.176Z" fill="#219653"/>
</svg>
