<svg width="138" height="138" viewBox="0 0 138 138" fill="none" xmlns="http://www.w3.org/2000/svg">
<path d="M109.539 28.2328C104.267 22.9079 97.9884 18.6859 91.068 15.8131C84.1476 12.9403 76.7245 11.4742 69.2316 11.5003C37.8366 11.5003 12.2491 37.0878 12.2491 68.4828C12.2491 78.5453 14.8941 88.3203 19.8391 96.9453L11.7891 126.5L41.9766 118.565C50.3141 123.108 59.6866 125.523 69.2316 125.523C100.627 125.523 126.214 99.9353 126.214 68.5403C126.214 53.3028 120.292 38.9853 109.539 28.2328ZM69.2316 115.863C60.7216 115.863 52.3841 113.563 45.0816 109.25L43.3566 108.215L25.4166 112.93L30.1891 95.4503L29.0391 93.6678C24.3111 86.1179 21.8006 77.391 21.7941 68.4828C21.7941 42.3778 43.0691 21.1028 69.1741 21.1028C81.8241 21.1028 93.7266 26.0478 102.639 35.0178C107.052 39.4106 110.549 44.6357 112.928 50.39C115.307 56.1444 116.52 62.3137 116.497 68.5403C116.612 94.6453 95.3366 115.863 69.2316 115.863ZM95.2216 80.4428C93.7841 79.7528 86.7691 76.3028 85.5041 75.7853C84.1816 75.3253 83.2616 75.0953 82.2841 76.4753C81.3066 77.9128 78.6041 81.1328 77.7991 82.0528C76.9941 83.0303 76.1316 83.1453 74.6941 82.3978C73.2566 81.7078 68.6566 80.1553 63.2516 75.3253C58.9966 71.5303 56.1791 66.8728 55.3166 65.4353C54.5116 63.9978 55.2016 63.2503 55.9491 62.5028C56.5816 61.8703 57.3866 60.8353 58.0766 60.0303C58.7666 59.2253 59.0541 58.5928 59.5141 57.6728C59.9741 56.6953 59.7441 55.8903 59.3991 55.2003C59.0541 54.5103 56.1791 47.4953 55.0291 44.6203C53.8791 41.8603 52.6716 42.2053 51.8091 42.1478H49.0491C48.0716 42.1478 46.5766 42.4928 45.2541 43.9303C43.9891 45.3678 40.3091 48.8178 40.3091 55.8328C40.3091 62.8478 45.4266 69.6328 46.1166 70.5528C46.8066 71.5303 56.1791 85.9053 70.4391 92.0578C73.8316 93.5528 76.4766 94.4153 78.5466 95.0478C81.9391 96.1403 85.0441 95.9678 87.5166 95.6228C90.2766 95.2203 95.9691 92.1728 97.1191 88.8378C98.3266 85.5028 98.3266 82.6853 97.9241 82.0528C97.5216 81.4203 96.6591 81.1328 95.2216 80.4428Z" fill="#8E9FAA"/>
</svg>
