<svg width="138" height="138" viewBox="0 0 138 138" fill="none" xmlns="http://www.w3.org/2000/svg">
<g clip-path="url(#clip0_428_2467)">
<rect width="124" height="122" transform="translate(7 9)" fill="#F5F8FD"/>
<path d="M12.5455 0C5.68309 0 0 5.68309 0 12.5455V125.455C0 132.317 5.68309 138 12.5455 138H125.455C132.317 138 138 132.317 138 125.455V12.5455C138 5.68309 132.317 0 125.455 0H12.5455ZM12.5455 12.5455H125.455V125.455H92.9116V83.1136H109.183L111.535 64.2955H92.9179V52.1389C92.9179 46.6565 94.2603 42.9305 102.126 42.9305H112.319V25.875C110.582 25.6555 104.554 25.2854 97.6225 25.2854C83.1638 25.2854 73.3156 33.9856 73.3156 50.1818V64.2955H56.8497V83.1136H73.3094V125.455H12.5455V12.5455Z" fill="#055ADA"/>
<path d="M12.5455 0C5.68309 0 0 5.68309 0 12.5455V125.455C0 132.317 5.68309 138 12.5455 138H125.455C132.317 138 138 132.317 138 125.455V12.5455C138 5.68309 132.317 0 125.455 0H12.5455ZM12.5455 12.5455H125.455V125.455H92.9116V83.1136H109.183L111.535 64.2955H92.9179V52.1389C92.9179 46.6565 94.2603 42.9305 102.126 42.9305H112.319V25.875C110.582 25.6555 104.554 25.2854 97.6225 25.2854C83.1638 25.2854 73.3156 33.9856 73.3156 50.1818V64.2955H56.8497V83.1136H73.3094V125.455H12.5455V12.5455Z" fill="#0448AE"/>
</g>
<defs>
<clipPath id="clip0_428_2467">
<rect width="138" height="138" fill="white"/>
</clipPath>
</defs>
</svg>
