<svg width="138" height="138" viewBox="0 0 138 138" fill="none" xmlns="http://www.w3.org/2000/svg">
<g clip-path="url(#clip0_432_4946)">
<path d="M2.94586 68.1737C2.94262 79.7684 5.99587 91.0897 11.8016 101.069L2.39062 135.163L37.5548 126.014C47.2807 131.268 58.1779 134.021 69.2516 134.022H69.2807C105.837 134.022 135.595 104.505 135.611 68.2256C135.618 50.6456 128.724 34.1144 116.2 21.6773C103.677 9.24128 87.0229 2.38888 69.278 2.38086C32.7172 2.38086 2.96149 31.8957 2.9464 68.1737" fill="url(#paint0_linear_432_4946)"/>
<path d="M0.576797 68.1527C0.573023 80.1646 3.7357 91.8909 9.74841 102.227L0 137.544L36.425 128.067C46.4613 133.497 57.7611 136.36 69.2593 136.364H69.2889C107.157 136.364 137.984 105.786 138 68.2073C138.006 49.9956 130.865 32.8702 117.893 19.9875C104.919 7.10646 87.6693 0.00748837 69.2889 0C31.4144 0 0.591891 30.574 0.576797 68.1527ZM22.2687 100.447L20.9086 98.3047C15.1913 89.2844 12.1736 78.8606 12.178 68.157C12.1904 36.9225 37.8088 11.5107 69.3105 11.5107C84.566 11.5171 98.9029 17.418 109.686 28.1242C120.469 38.8315 126.403 53.0647 126.399 68.203C126.385 99.4376 100.766 124.853 69.2889 124.853H69.2663C59.0171 124.847 48.9652 122.116 40.199 116.955L38.1128 115.727L16.4975 121.351L22.2687 100.446V100.447Z" fill="url(#paint1_linear_432_4946)"/>
<path d="M52.1155 39.6608C50.8293 36.8243 49.4758 36.7671 48.2526 36.7174C47.251 36.6746 46.1061 36.6778 44.9622 36.6778C43.8172 36.6778 41.9569 37.1052 40.3845 38.8088C38.8104 40.514 34.375 44.6347 34.375 53.0158C34.375 61.3974 40.5273 69.4972 41.385 70.6349C42.2437 71.7704 53.2621 89.52 70.7127 96.3483C85.2156 102.023 88.167 100.894 91.3146 100.61C94.4627 100.326 101.473 96.4901 102.903 92.5122C104.334 88.5348 104.334 85.1254 103.905 84.413C103.476 83.7032 102.331 83.2769 100.614 82.4253C98.8965 81.5733 90.4558 77.452 88.8823 76.8834C87.3082 76.3154 86.1638 76.0319 85.0188 77.7376C83.8739 79.4407 80.5861 83.2769 79.584 84.413C78.583 85.5517 77.5809 85.6935 75.8645 84.8414C74.1465 83.9866 68.6173 82.19 62.0575 76.387C56.9536 71.8715 53.5079 66.2954 52.5064 64.5896C51.5048 62.8866 52.3991 61.9634 53.26 61.1145C54.0314 60.3512 54.9774 59.1253 55.8367 58.1309C56.6927 57.136 56.9784 56.4262 57.5509 55.2901C58.1239 54.153 57.8372 53.1581 57.4086 52.306C56.9784 51.454 53.6422 43.029 52.1155 39.6608Z" fill="white"/>
</g>
<defs>
<linearGradient id="paint0_linear_432_4946" x1="6663.4" y1="13280.6" x2="6663.4" y2="2.38086" gradientUnits="userSpaceOnUse">
<stop stop-color="#1FAF38"/>
<stop offset="1" stop-color="#60D669"/>
</linearGradient>
<linearGradient id="paint1_linear_432_4946" x1="6900" y1="13754.4" x2="6900" y2="0" gradientUnits="userSpaceOnUse">
<stop stop-color="#F9F9F9"/>
<stop offset="1" stop-color="white"/>
</linearGradient>
<clipPath id="clip0_432_4946">
<rect width="138" height="138" fill="white"/>
</clipPath>
</defs>
</svg>
