<svg width="138" height="138" viewBox="0 0 138 138" fill="none" xmlns="http://www.w3.org/2000/svg">
<g clip-path="url(#clip0_428_2486)">
<path d="M0 69.0011C0 97.2555 16.9902 121.528 41.3024 132.2C41.1084 127.382 41.2679 121.598 42.5035 116.356C43.8301 110.754 51.3818 78.757 51.3818 78.757C51.3818 78.757 49.1776 74.3513 49.1776 67.8399C49.1776 57.6145 55.104 49.9776 62.4849 49.9776C68.7612 49.9776 71.7934 54.6917 71.7934 60.3367C71.7934 66.6459 67.7693 76.0833 65.6999 84.8242C63.9711 92.1436 69.3698 98.1137 76.5905 98.1137C89.6639 98.1137 98.4689 81.3224 98.4689 61.4278C98.4689 46.3049 88.2833 34.9857 69.7574 34.9857C48.8267 34.9857 35.7873 50.5948 35.7873 68.0302C35.7873 74.0418 37.5597 78.281 40.3359 81.5639C41.6124 83.0717 41.7897 83.6781 41.3278 85.4096C40.9968 86.6791 40.2367 89.7356 39.9219 90.9469C39.4626 92.6945 38.0465 93.3193 36.467 92.674C26.8264 88.7383 22.3366 78.1808 22.3366 66.3128C22.3366 46.7119 38.8675 23.2088 71.6511 23.2088C97.9951 23.2088 115.334 42.2722 115.334 62.7356C115.334 89.8035 100.286 110.025 78.1031 110.025C70.6538 110.025 63.6466 105.999 61.2461 101.425C61.2461 101.425 57.2404 117.323 56.3919 120.393C54.9289 125.713 52.0653 131.03 49.4471 135.174C55.796 137.051 62.3821 138.004 69.0027 138.004C107.106 138.004 138.001 107.111 138.001 69.0011C138.001 30.8931 107.106 0 69.0027 0C30.8958 0 0 30.8931 0 69.0011Z" fill="#CB1F27"/>
</g>
<defs>
<clipPath id="clip0_428_2486">
<rect width="138" height="138" fill="white"/>
</clipPath>
</defs>
</svg>
