<svg width="138" height="138" viewBox="0 0 138 138" fill="none" xmlns="http://www.w3.org/2000/svg">
<g clip-path="url(#clip0_428_2516)">
<path d="M69 12.4329C87.4235 12.4329 89.6057 12.503 96.8814 12.8345C103.609 13.1418 107.263 14.2657 109.694 15.2107C112.915 16.4624 115.213 17.9578 117.628 20.3722C120.043 22.7867 121.538 25.0853 122.789 28.3056C123.734 30.7373 124.858 34.3911 125.165 41.1181C125.497 48.3943 125.567 50.5765 125.567 69C125.567 87.4241 125.497 89.6062 125.165 96.8819C124.858 103.609 123.734 107.263 122.789 109.694C121.538 112.915 120.042 115.214 117.628 117.628C115.213 120.043 112.915 121.538 109.694 122.789C107.263 123.734 103.609 124.859 96.8814 125.165C89.6067 125.498 87.4246 125.568 69 125.568C50.5748 125.568 48.3927 125.498 41.1181 125.165C34.3906 124.858 30.7373 123.734 28.3056 122.789C25.0853 121.538 22.7862 120.043 20.3717 117.628C17.9573 115.213 16.4619 112.915 15.2107 109.694C14.2657 107.263 13.1413 103.609 12.8345 96.8819C12.5025 89.6062 12.4324 87.4241 12.4324 69C12.4324 50.5765 12.5025 48.3943 12.8345 41.1186C13.1418 34.3911 14.2657 30.7373 15.2107 28.3056C16.4619 25.0853 17.9573 22.7867 20.3717 20.3722C22.7867 17.9572 25.0853 16.4624 28.3056 15.2107C30.7368 14.2657 34.3906 13.1418 41.1181 12.8345C48.3938 12.503 50.5759 12.4329 69 12.4329ZM69 0C50.2606 0 47.9108 0.0792422 40.5515 0.415078C33.2068 0.750375 28.1908 1.91691 23.8023 3.6225C19.2645 5.38577 15.4166 7.74525 11.5807 11.5812C7.74471 15.4172 5.38577 19.265 3.6225 23.8023C1.91637 28.1914 0.750375 33.2073 0.415078 40.5515C0.0792422 47.9108 0 50.2606 0 69C0 87.7394 0.0792422 90.0892 0.415078 97.4485C0.750375 104.793 1.91637 109.809 3.6225 114.198C5.38523 118.735 7.74471 122.583 11.5807 126.419C15.4166 130.255 19.2645 132.614 23.8023 134.377C28.1914 136.084 33.2068 137.25 40.551 137.585C47.9108 137.921 50.2606 138 69 138C87.7394 138 90.0892 137.921 97.4485 137.585C104.793 137.25 109.809 136.084 114.197 134.377C118.735 132.615 122.583 130.255 126.419 126.419C130.255 122.583 132.614 118.736 134.377 114.198C136.083 109.809 137.25 104.793 137.585 97.449C137.921 90.0892 138 87.7394 138 69C138 50.2606 137.921 47.9108 137.585 40.5515C137.25 33.2073 136.083 28.1914 134.377 23.8028C132.614 19.265 130.255 15.4172 126.419 11.5812C122.583 7.74525 118.735 5.38523 114.198 3.6225C109.809 1.91691 104.793 0.750375 97.4485 0.415078C90.0892 0.0792422 87.7394 0 69 0ZM69 33.5674C49.431 33.5674 33.5674 49.432 33.5674 69C33.5674 88.569 49.431 104.433 69 104.433C88.5685 104.433 104.433 88.569 104.433 69C104.433 49.4315 88.5685 33.5674 69 33.5674ZM69 92.0002C56.2975 92.0002 45.9998 81.7025 45.9998 69C45.9998 56.2975 56.2975 45.9998 69 45.9998C81.7025 45.9998 92.0002 56.2975 92.0002 69C92.0002 81.7025 81.7025 92.0002 69 92.0002ZM114.112 32.1675C114.112 36.7409 110.405 40.4475 105.832 40.4475C101.259 40.4475 97.552 36.7409 97.552 32.1675C97.552 27.5946 101.259 23.8875 105.832 23.8875C110.405 23.8875 114.112 27.5946 114.112 32.1675Z" fill="#8E9FAA"/>
</g>
<defs>
<clipPath id="clip0_428_2516">
<rect width="138" height="138" fill="white"/>
</clipPath>
</defs>
</svg>
