<svg width="138" height="138" viewBox="0 0 138 138" fill="none" xmlns="http://www.w3.org/2000/svg">
<g clip-path="url(#clip0_428_2520)">
<path d="M105.656 0H32.3438C14.4808 0 0 14.4808 0 32.3438V105.656C0 123.519 14.4808 138 32.3438 138H105.656C123.519 138 138 123.519 138 105.656V32.3438C138 14.4808 123.519 0 105.656 0Z" fill="url(#paint0_radial_428_2520)"/>
<path d="M105.656 0H32.3438C14.4808 0 0 14.4808 0 32.3438V105.656C0 123.519 14.4808 138 32.3438 138H105.656C123.519 138 138 123.519 138 105.656V32.3438C138 14.4808 123.519 0 105.656 0Z" fill="url(#paint1_radial_428_2520)"/>
<path d="M69.0049 15.0938C54.365 15.0938 52.5273 15.1579 46.7777 15.4193C41.0388 15.6824 37.1215 16.5907 33.6941 17.9238C30.1481 19.3006 27.1407 21.1426 24.1446 24.1398C21.1458 27.1364 19.3038 30.1438 17.9228 33.6882C16.5859 37.1166 15.6765 41.0356 15.4183 46.7718C15.1611 52.5219 15.0938 54.3601 15.0938 69.0005C15.0938 83.6409 15.1584 85.4727 15.4193 91.2223C15.6835 96.9612 16.5918 100.879 17.9238 104.306C19.3017 107.852 21.1436 110.859 24.1408 113.855C27.1364 116.854 30.1438 118.7 33.6871 120.077C37.1171 121.41 41.0351 122.319 46.7728 122.582C52.523 122.843 54.3591 122.907 68.9984 122.907C83.6399 122.907 85.4716 122.843 91.2212 122.582C96.9601 122.319 100.882 121.41 104.312 120.077C107.856 118.7 110.859 116.854 113.854 113.855C116.853 110.859 118.695 107.852 120.076 104.308C121.401 100.879 122.311 96.9601 122.581 91.2234C122.839 85.4737 122.906 83.6409 122.906 69.0005C122.906 54.3601 122.839 52.523 122.581 46.7728C122.311 41.034 121.401 37.1171 120.076 33.6898C118.695 30.1438 116.853 27.1364 113.854 24.1398C110.856 21.1415 107.857 19.2995 104.309 17.9244C100.872 16.5907 96.9525 15.6819 91.2137 15.4193C85.4635 15.1579 83.6328 15.0938 68.9881 15.0938H69.0049ZM64.1689 24.8082C65.6044 24.806 67.206 24.8082 69.0049 24.8082C83.3984 24.8082 85.104 24.8599 90.7878 25.1182C96.0437 25.3586 98.8964 26.2367 100.797 26.9747C103.312 27.9515 105.106 29.1196 106.992 31.0069C108.878 32.8936 110.046 34.6903 111.025 37.2061C111.763 39.1036 112.643 41.9563 112.882 47.2122C113.14 52.895 113.196 54.6016 113.196 68.9881C113.196 83.3746 113.14 85.0818 112.882 90.7641C112.641 96.02 111.763 98.8727 111.025 100.771C110.049 103.287 108.878 105.078 106.992 106.963C105.105 108.85 103.313 110.018 100.797 110.995C98.8986 111.736 96.0437 112.612 90.7878 112.853C85.105 113.111 83.3984 113.167 69.0049 113.167C54.6108 113.167 52.9047 113.111 47.2224 112.853C41.9666 112.61 39.1138 111.732 37.212 110.994C34.6968 110.017 32.8995 108.849 31.0128 106.962C29.1261 105.076 27.9585 103.283 26.979 100.766C26.241 98.8684 25.3618 96.0157 25.1225 90.7598C24.8643 85.077 24.8125 83.3703 24.8125 68.9747C24.8125 54.5795 24.8643 52.8815 25.1225 47.1987C25.3629 41.9428 26.241 39.0901 26.979 37.1899C27.9563 34.6741 29.1261 32.8774 31.0133 30.9907C32.9001 29.104 34.6968 27.9358 37.2126 26.9569C39.1128 26.2157 41.9666 25.3397 47.2224 25.0982C52.1953 24.8734 54.1224 24.806 64.1689 24.7947V24.8082ZM97.78 33.7588C94.2087 33.7588 91.3113 36.6536 91.3113 40.2254C91.3113 43.7967 94.2087 46.6941 97.78 46.6941C101.351 46.6941 104.249 43.7967 104.249 40.2254C104.249 36.6541 101.351 33.7566 97.78 33.7566V33.7588ZM69.0049 41.317C53.717 41.317 41.3218 53.7122 41.3218 69.0005C41.3218 84.2889 53.717 96.6782 69.0049 96.6782C84.2932 96.6782 96.6841 84.2889 96.6841 69.0005C96.6841 53.7127 84.2921 41.317 69.0038 41.317H69.0049ZM69.0049 51.0314C78.9285 51.0314 86.974 59.0759 86.974 69.0005C86.974 78.9241 78.9285 86.9697 69.0049 86.9697C59.0807 86.9697 51.0363 78.9241 51.0363 69.0005C51.0363 59.0759 59.0807 51.0314 69.0049 51.0314Z" fill="white"/>
</g>
<defs>
<radialGradient id="paint0_radial_428_2520" cx="0" cy="0" r="1" gradientUnits="userSpaceOnUse" gradientTransform="translate(36.6562 148.629) rotate(-90) scale(136.768 127.205)">
<stop stop-color="#FFDD55"/>
<stop offset="0.1" stop-color="#FFDD55"/>
<stop offset="0.5" stop-color="#FF543E"/>
<stop offset="1" stop-color="#C837AB"/>
</radialGradient>
<radialGradient id="paint1_radial_428_2520" cx="0" cy="0" r="1" gradientUnits="userSpaceOnUse" gradientTransform="translate(-23.1155 9.94085) rotate(78.681) scale(61.1362 252.005)">
<stop stop-color="#3771C8"/>
<stop offset="0.128" stop-color="#3771C8"/>
<stop offset="1" stop-color="#6600FF" stop-opacity="0"/>
</radialGradient>
<clipPath id="clip0_428_2520">
<rect width="138" height="138" fill="white"/>
</clipPath>
</defs>
</svg>
